<?xml version="1.0" encoding="utf-8"?>
<!-- Generator: Adobe Illustrator 22.0.0, SVG Export Plug-In . SVG Version: 6.00 Build 0)  -->
<svg version="1.1" id="Camada_1" xmlns="http://www.w3.org/2000/svg" xmlns:xlink="http://www.w3.org/1999/xlink" x="0px" y="0px"
	 viewBox="0 0 150 150" style="enable-background:new 0 0 150 150;" xml:space="preserve">
<style type="text/css">
	.st0{fill:none;stroke:#808080;stroke-width:4;stroke-miterlimit:10;}
	.st1{fill:#FFFFFF;}
	.st2{fill:#808080;}
	.st3{fill:none;stroke:#000000;stroke-width:4;stroke-miterlimit:10;}
	.st4{fill:#890000;}
</style>
<line class="st0" x1="124.5" y1="62.5" x2="124.5" y2="80.5"/>
<g>
	<circle class="st1" cx="25.5" cy="15.5" r="9.5"/>
	<path class="st2" d="M25.5,9c3.6,0,6.5,2.9,6.5,6.5S29.1,22,25.5,22S19,19.1,19,15.5S21.9,9,25.5,9 M25.5,3C18.6,3,13,8.6,13,15.5
		S18.6,28,25.5,28S38,22.4,38,15.5S32.4,3,25.5,3L25.5,3z"/>
</g>
<g>
	<circle class="st1" cx="58.5" cy="15.5" r="9.5"/>
	<path class="st2" d="M58.5,9c3.6,0,6.5,2.9,6.5,6.5S62.1,22,58.5,22S52,19.1,52,15.5S54.9,9,58.5,9 M58.5,3C51.6,3,46,8.6,46,15.5
		S51.6,28,58.5,28S71,22.4,71,15.5S65.4,3,58.5,3L58.5,3z"/>
</g>
<g>
	<circle class="st1" cx="124.5" cy="15.5" r="9.5"/>
	<path class="st2" d="M124.5,9c3.6,0,6.5,2.9,6.5,6.5s-2.9,6.5-6.5,6.5s-6.5-2.9-6.5-6.5S120.9,9,124.5,9 M124.5,3
		C117.6,3,112,8.6,112,15.5S117.6,28,124.5,28c6.9,0,12.5-5.6,12.5-12.5S131.4,3,124.5,3L124.5,3z"/>
</g>
<g>
	<circle class="st1" cx="25.5" cy="52.5" r="9.5"/>
	<path class="st2" d="M25.5,46c3.6,0,6.5,2.9,6.5,6.5S29.1,59,25.5,59S19,56.1,19,52.5S21.9,46,25.5,46 M25.5,40
		C18.6,40,13,45.6,13,52.5S18.6,65,25.5,65S38,59.4,38,52.5S32.4,40,25.5,40L25.5,40z"/>
</g>
<g>
	<circle class="st1" cx="58.5" cy="52.5" r="9.5"/>
	<path class="st2" d="M58.5,46c3.6,0,6.5,2.9,6.5,6.5S62.1,59,58.5,59S52,56.1,52,52.5S54.9,46,58.5,46 M58.5,40
		C51.6,40,46,45.6,46,52.5S51.6,65,58.5,65S71,59.4,71,52.5S65.4,40,58.5,40L58.5,40z"/>
</g>
<g>
	<circle class="st1" cx="91.5" cy="52.5" r="9.5"/>
	<path d="M91.5,46c3.6,0,6.5,2.9,6.5,6.5S95.1,59,91.5,59S85,56.1,85,52.5S87.9,46,91.5,46 M91.5,40C84.6,40,79,45.6,79,52.5
		S84.6,65,91.5,65S104,59.4,104,52.5S98.4,40,91.5,40L91.5,40z"/>
</g>
<g>
	<circle class="st1" cx="124.5" cy="52.5" r="9.5"/>
	<path d="M124.5,46c3.6,0,6.5,2.9,6.5,6.5s-2.9,6.5-6.5,6.5s-6.5-2.9-6.5-6.5S120.9,46,124.5,46 M124.5,40
		c-6.9,0-12.5,5.6-12.5,12.5S117.6,65,124.5,65c6.9,0,12.5-5.6,12.5-12.5S131.4,40,124.5,40L124.5,40z"/>
</g>
<g>
	<circle class="st1" cx="25.5" cy="89.5" r="9.5"/>
	<path class="st2" d="M25.5,83c3.6,0,6.5,2.9,6.5,6.5S29.1,96,25.5,96S19,93.1,19,89.5S21.9,83,25.5,83 M25.5,77
		C18.6,77,13,82.6,13,89.5S18.6,102,25.5,102S38,96.4,38,89.5S32.4,77,25.5,77L25.5,77z"/>
</g>
<g>
	<circle class="st1" cx="58.5" cy="89.5" r="9.5"/>
	<path d="M58.5,83c3.6,0,6.5,2.9,6.5,6.5S62.1,96,58.5,96S52,93.1,52,89.5S54.9,83,58.5,83 M58.5,77C51.6,77,46,82.6,46,89.5
		S51.6,102,58.5,102S71,96.4,71,89.5S65.4,77,58.5,77L58.5,77z"/>
</g>
<g>
	<circle class="st1" cx="91.5" cy="89.5" r="9.5"/>
	<path d="M91.5,83c3.6,0,6.5,2.9,6.5,6.5S95.1,96,91.5,96S85,93.1,85,89.5S87.9,83,91.5,83 M91.5,77C84.6,77,79,82.6,79,89.5
		S84.6,102,91.5,102S104,96.4,104,89.5S98.4,77,91.5,77L91.5,77z"/>
</g>
<g>
	<circle class="st1" cx="124.5" cy="89.5" r="9.5"/>
	<path class="st2" d="M124.5,83c3.6,0,6.5,2.9,6.5,6.5s-2.9,6.5-6.5,6.5s-6.5-2.9-6.5-6.5S120.9,83,124.5,83 M124.5,77
		c-6.9,0-12.5,5.6-12.5,12.5s5.6,12.5,12.5,12.5c6.9,0,12.5-5.6,12.5-12.5S131.4,77,124.5,77L124.5,77z"/>
</g>
<g>
	<circle class="st1" cx="25.5" cy="126.5" r="9.5"/>
	<path d="M25.5,120c3.6,0,6.5,2.9,6.5,6.5c0,3.6-2.9,6.5-6.5,6.5s-6.5-2.9-6.5-6.5S21.9,120,25.5,120 M25.5,114
		c-6.9,0-12.5,5.6-12.5,12.5c0,6.9,5.6,12.5,12.5,12.5S38,133.4,38,126.5S32.4,114,25.5,114L25.5,114z"/>
</g>
<g>
	<circle class="st1" cx="58.5" cy="126.5" r="9.5"/>
	<path d="M58.5,120c3.6,0,6.5,2.9,6.5,6.5c0,3.6-2.9,6.5-6.5,6.5s-6.5-2.9-6.5-6.5S54.9,120,58.5,120 M58.5,114
		c-6.9,0-12.5,5.6-12.5,12.5c0,6.9,5.6,12.5,12.5,12.5S71,133.4,71,126.5S65.4,114,58.5,114L58.5,114z"/>
</g>
<g>
	<circle class="st1" cx="91.5" cy="126.5" r="9.5"/>
	<path d="M91.5,120c3.6,0,6.5,2.9,6.5,6.5c0,3.6-2.9,6.5-6.5,6.5s-6.5-2.9-6.5-6.5S87.9,120,91.5,120 M91.5,114
		c-6.9,0-12.5,5.6-12.5,12.5c0,6.9,5.6,12.5,12.5,12.5s12.5-5.6,12.5-12.5S98.4,114,91.5,114L91.5,114z"/>
</g>
<g>
	<circle class="st1" cx="124.5" cy="126.5" r="9.5"/>
	<path d="M124.5,120c3.6,0,6.5,2.9,6.5,6.5c0,3.6-2.9,6.5-6.5,6.5s-6.5-2.9-6.5-6.5S120.9,120,124.5,120 M124.5,114
		c-6.9,0-12.5,5.6-12.5,12.5c0,6.9,5.6,12.5,12.5,12.5c6.9,0,12.5-5.6,12.5-12.5S131.4,114,124.5,114L124.5,114z"/>
</g>
<g>
	<line class="st3" x1="92" y1="25" x2="92" y2="43"/>
</g>
<line class="st3" x1="99" y1="24" x2="119" y2="45"/>
<line class="st3" x1="86.5" y1="59.5" x2="63" y2="82"/>
<line class="st3" x1="118.5" y1="59.5" x2="96" y2="82"/>
<line class="st3" x1="58.5" y1="98.5" x2="58.5" y2="116.5"/>
<line class="st3" x1="53" y1="97" x2="31" y2="119"/>
<line class="st3" x1="91.5" y1="98.5" x2="91.5" y2="116.5"/>
<line class="st3" x1="99" y1="97" x2="119" y2="120"/>
<line class="st0" x1="25.5" y1="24.5" x2="25.5" y2="42.5"/>
<line class="st0" x1="31.5" y1="23.5" x2="54.2" y2="43.5"/>
<line class="st0" x1="25.5" y1="61.5" x2="25.5" y2="80.5"/>
<g>
	<circle class="st1" cx="91.5" cy="15.5" r="9.5"/>
	<path class="st4" d="M91.5,9c3.6,0,6.5,2.9,6.5,6.5S95.1,22,91.5,22S85,19.1,85,15.5S87.9,9,91.5,9 M91.5,3C84.6,3,79,8.6,79,15.5
		S84.6,28,91.5,28S104,22.4,104,15.5S98.4,3,91.5,3L91.5,3z"/>
</g>
</svg>
